<?xml version="1.0" standalone="no"?>
<!DOCTYPE svg PUBLIC "-//W3C//DTD SVG 20010904//EN"
 "http://www.w3.org/TR/2001/REC-SVG-20010904/DTD/svg10.dtd">
<svg version="1.0" xmlns="http://www.w3.org/2000/svg"
 width="1482.000000pt" height="396.000000pt" viewBox="0 0 1482.000000 396.000000"
 preserveAspectRatio="xMidYMid meet">

<g transform="translate(0.000000,396.000000) scale(0.100000,-0.100000)"
fill="#fff" stroke="none">
<path d="M1357 1998 c-492 -854 -899 -1561 -902 -1570 -7 -17 83 -18 1805 -18
1169 0 1810 3 1808 10 -7 21 -1803 3129 -1809 3130 -3 0 -409 -699 -902 -1552z"/>
<path d="M4148 3278 c11 -18 318 -550 682 -1181 551 -954 665 -1146 673 -1130
6 10 311 539 679 1176 367 636 668 1160 668 1162 0 3 -115 4 -257 3 l-256 -3
-419 -725 c-230 -399 -422 -726 -426 -727 -4 -1 -196 326 -427 727 l-420 730
-258 0 -259 0 20 -32z"/>
<path d="M13930 2180 l0 -1130 225 0 225 0 0 1130 0 1130 -225 0 -225 0 0
-1130z"/>
<path d="M7234 2756 c-306 -59 -526 -215 -649 -461 -138 -279 -120 -631 45
-879 229 -341 690 -492 1147 -375 94 24 246 95 327 153 61 44 174 152 165 159
-2 2 -87 52 -188 110 l-184 106 -31 -27 c-102 -89 -215 -133 -361 -139 -223
-11 -419 87 -508 255 l-28 52 685 0 686 0 7 28 c5 15 8 90 7 167 -1 167 -21
253 -88 390 -109 220 -305 374 -561 441 -123 32 -355 42 -471 20z m341 -401
c82 -22 147 -60 204 -120 45 -47 101 -139 101 -165 0 -7 -149 -10 -455 -10
-327 0 -455 3 -455 11 0 6 14 38 32 71 53 100 157 181 276 213 66 19 226 18
297 0z"/>
<path d="M10645 2759 c-92 -13 -220 -56 -320 -107 -74 -38 -108 -64 -191 -147
-91 -90 -106 -111 -152 -205 -59 -122 -81 -199 -91 -322 -24 -303 67 -554 267
-739 344 -318 970 -318 1323 -1 64 58 152 173 141 184 -9 9 -352 208 -363 211
-4 1 -24 -21 -46 -50 -93 -124 -222 -183 -401 -183 -300 0 -499 219 -478 525
15 226 149 389 357 435 83 19 249 8 321 -19 76 -29 166 -98 203 -155 17 -25
34 -46 39 -46 8 0 330 181 361 203 15 12 12 18 -28 72 -135 183 -329 297 -581
340 -95 16 -263 18 -361 4z"/>
<path d="M12555 2764 c-413 -65 -683 -307 -766 -689 -17 -77 -17 -293 0 -370
36 -162 119 -311 238 -426 150 -145 329 -230 553 -264 349 -53 698 53 919 279
30 30 53 57 50 59 -2 3 -87 52 -188 110 l-183 105 -53 -43 c-111 -90 -240
-130 -400 -122 -205 9 -364 100 -449 257 l-27 50 686 0 c644 0 686 1 693 18 4
9 7 85 6 167 -1 178 -19 260 -88 400 -110 222 -303 374 -561 441 -82 21 -128
27 -250 29 -82 2 -163 1 -180 -1z m298 -409 c32 -8 76 -24 99 -36 81 -41 186
-161 203 -231 l7 -28 -456 0 c-327 0 -456 3 -456 11 0 6 14 38 32 71 53 100
157 181 276 213 66 18 226 18 295 0z"/>
<path d="M8650 1885 l0 -835 225 0 225 0 0 408 c0 448 3 478 60 577 35 61 120
144 176 173 100 51 270 72 367 44 l37 -10 0 240 0 241 -82 -6 c-237 -19 -453
-142 -529 -302 l-29 -60 0 183 0 182 -225 0 -225 0 0 -835z"/>
</g>
</svg>
